<?xml version="1.0" standalone="no"?>
<!DOCTYPE svg PUBLIC "-//W3C//DTD SVG 20010904//EN"
 "http://www.w3.org/TR/2001/REC-SVG-20010904/DTD/svg10.dtd">
<svg version="1.0" xmlns="http://www.w3.org/2000/svg"
 width="194.000000pt" height="194.000000pt" viewBox="0 0 194.000000 194.000000"
 preserveAspectRatio="xMidYMid meet">
<metadata>
Created by potrace 1.13, written by Peter Selinger 2001-2015
</metadata>
<g transform="translate(0.000000,194.000000) scale(0.100000,-0.100000)"
fill="#000000" stroke="none">
<path d="M240 1745 l0 -196 141 3 141 3 17 42 c46 117 143 189 272 200 l64 6
-26 -29 c-39 -43 -49 -67 -49 -124 0 -56 10 -81 47 -122 l25 -27 -54 0 c-96 0
-173 -47 -208 -126 -10 -22 -66 -246 -126 -497 l-108 -457 -41 -16 c-57 -21
-117 -67 -148 -112 -46 -67 -62 -64 263 -63 l296 1 11 -43 c19 -69 100 -151
171 -173 21 -6 22 -4 22 53 0 33 3 80 6 106 l7 46 85 0 84 0 -4 57 c-5 65 -28
120 -68 163 -28 30 -28 30 -147 30 -180 0 -163 -20 -163 191 0 157 2 180 16
186 9 3 24 2 33 -4 14 -9 15 -28 13 -128 -2 -65 -1 -133 3 -151 l6 -34 113 0
c110 0 114 -1 154 -30 56 -41 93 -114 101 -205 l6 -70 298 -3 c202 -1 297 1
297 8 0 29 -32 79 -74 119 -42 38 -176 111 -205 111 -12 0 -9 -17 -86 445 -36
215 -73 410 -82 434 -30 83 -107 139 -226 165 l-27 6 27 42 c39 59 39 137 0
196 l-27 42 34 0 c108 0 210 -74 242 -174 l18 -56 143 0 143 0 0 190 0 190
-715 0 -715 0 0 -195z"/>
</g>
</svg>
